<?xml version="1.0" encoding="utf-8"?>
<svg version="1.1" width="104px" height="104px" xmlns:xlink="http://www.w3.org/1999/xlink" xmlns="http://www.w3.org/2000/svg">
  <g transform="translate(-41 -299 )">
    <path d="M 42 303  A 3 3 0 0 1 45 300 L 141 300  A 3 3 0 0 1 144 303 L 144 399  A 3 3 0 0 1 141 402 L 45 402  A 3 3 0 0 1 42 399 L 42 303  Z " fill-rule="nonzero" fill="#000000" stroke="none" fill-opacity="0.0196078431372549" />
    <path d="M 41.5 303  A 3.5 3.5 0 0 1 45 299.5 L 141 299.5  A 3.5 3.5 0 0 1 144.5 303 L 144.5 399  A 3.5 3.5 0 0 1 141 402.5 L 45 402.5  A 3.5 3.5 0 0 1 41.5 399 L 41.5 303  Z " stroke-width="1" stroke-dasharray="9,4" stroke="#d9d9d9" fill="none" stroke-dashoffset="0.5" />
  </g>
</svg>