<?xml version="1.0" encoding="utf-8"?>
<svg version="1.1" width="30px" height="35px" xmlns:xlink="http://www.w3.org/1999/xlink" xmlns="http://www.w3.org/2000/svg">
  <g transform="translate(-41 -451 )">
    <path d="M 22.578125 1.328125  L 28.671875 7.421875  C 29.0364583333333 7.78645833333333  29.3489583333333 8.28125  29.609375 8.90625  C 29.8697916666667 9.53125  30 10.1041666666667  30 10.625  L 30 33.125  C 30 33.6458333333333  29.8177083333333 34.0885416666667  29.453125 34.453125  C 29.0885416666667 34.8177083333333  28.6458333333333 35  28.125 35  L 1.875 35  C 1.35416666666667 35  0.911458333333333 34.8177083333333  0.546875 34.453125  C 0.182291666666667 34.0885416666667  0 33.6458333333333  0 33.125  L 0 1.875  C 0 1.35416666666667  0.182291666666667 0.911458333333332  0.546875 0.546875  C 0.911458333333333 0.182291666666668  1.35416666666667 0  1.875 0  L 19.375 0  C 19.8958333333333 0  20.46875 0.130208333333335  21.09375 0.390625000000001  C 21.71875 0.651041666666666  22.2135416666667 0.963541666666665  22.578125 1.328125  Z M 20.80078125 3.0859375  C 20.64453125 2.9296875  20.3776041666667 2.78645833333333  20 2.65625  L 20 10  L 27.34375 10  C 27.2135416666667 9.62239583333333  27.0703125 9.35546875  26.9140625 9.19921875  L 20.80078125 3.0859375  Z M 3 32  L 27 32  L 27 12.5  L 19.375 12.5  C 18.8541666666667 12.5  18.4114583333333 12.3177083333333  18.046875 11.953125  C 17.6822916666667 11.5885416666667  17.5 11.1458333333333  17.5 10.625  L 17.5 3  L 3 3  L 3 32  Z M 14.609375 16.26953125  C 15.3255208333333 18.4049479166667  16.2760416666667 19.9544270833333  17.4609375 20.91796875  C 17.890625 21.2565104166667  18.4375 21.62109375  19.1015625 22.01171875  C 19.8697916666667 21.9205729166667  20.6315104166667 21.875  21.38671875 21.875  C 23.30078125 21.875  24.453125 22.1940104166667  24.84375 22.83203125  C 25.0520833333333 23.1184895833333  25.0651041666667 23.45703125  24.8828125 23.84765625  C 24.8828125 23.8606770833333  24.8763020833333 23.8736979166667  24.86328125 23.88671875  L 24.82421875 23.92578125  L 24.82421875 23.9453125  C 24.74609375 24.4401041666667  24.2838541666667 24.6875  23.4375 24.6875  C 22.8125 24.6875  22.0638020833333 24.5572916666667  21.19140625 24.296875  C 20.3190104166667 24.0364583333333  19.47265625 23.69140625  18.65234375 23.26171875  C 15.7747395833333 23.57421875  13.22265625 24.1145833333333  10.99609375 24.8828125  C 9.00390625 28.2942708333333  7.42838541666667 30  6.26953125 30  C 6.07421875 30  5.89192708333333 29.9544270833333  5.72265625 29.86328125  L 5.25390625 29.62890625  C 5.24088541666667 29.6158854166667  5.20182291666667 29.5833333333333  5.13671875 29.53125  C 5.00651041666667 29.4010416666667  4.96744791666667 29.1666666666667  5.01953125 28.828125  C 5.13671875 28.3072916666667  5.50130208333333 27.7115885416667  6.11328125 27.041015625  C 6.72526041666667 26.3704427083333  7.58463541666667 25.7421875  8.69140625 25.15625  C 8.87369791666667 25.0390625  9.0234375 25.078125  9.140625 25.2734375  C 9.16666666666667 25.2994791666667  9.1796875 25.3255208333333  9.1796875 25.3515625  C 9.85677083333334 24.2447916666667  10.5533854166667 22.9622395833333  11.26953125 21.50390625  C 12.1549479166667 19.7330729166667  12.83203125 18.02734375  13.30078125 16.38671875  C 12.98828125 15.3190104166667  12.7897135416667 14.2805989583333  12.705078125 13.271484375  C 12.6204427083333 12.2623697916667  12.6627604166667 11.4322916666667  12.83203125 10.78125  C 12.9752604166667 10.2604166666667  13.2486979166667 10  13.65234375 10  L 14.0625 10  L 14.08203125 10  C 14.3815104166667 10  14.609375 10.09765625  14.765625 10.29296875  C 15 10.56640625  15.05859375 11.0091145833333  14.94140625 11.62109375  C 14.9153645833333 11.69921875  14.8893229166667 11.7513020833333  14.86328125 11.77734375  C 14.8763020833333 11.81640625  14.8828125 11.8684895833333  14.8828125 11.93359375  L 14.8828125 12.51953125  C 14.8567708333333 14.12109375  14.765625 15.37109375  14.609375 16.26953125  Z M 7.177734375 27.5  C 6.70247395833333 28.0729166666667  6.38020833333333 28.5546875  6.2109375 28.9453125  C 6.88802083333333 28.6328125  7.77994791666667 27.6041666666667  8.88671875 25.859375  C 8.22265625 26.3802083333333  7.65299479166667 26.9270833333333  7.177734375 27.5  Z M 13.984375 10.9375  L 13.984375 10.9765625  C 13.7890625 11.5234375  13.7760416666667 12.3828125  13.9453125 13.5546875  C 13.9583333333333 13.4635416666667  14.00390625 13.1770833333333  14.08203125 12.6953125  C 14.08203125 12.65625  14.1276041666667 12.3763020833333  14.21875 11.85546875  C 14.2317708333333 11.8033854166667  14.2578125 11.7513020833333  14.296875 11.69921875  C 14.2838541666667 11.6861979166667  14.27734375 11.6731770833333  14.27734375 11.66015625  C 14.2643229166667 11.6341145833333  14.2578125 11.6145833333333  14.2578125 11.6015625  C 14.2447916666667 11.3151041666667  14.16015625 11.0807291666667  14.00390625 10.8984375  C 14.00390625 10.9114583333333  13.9973958333333 10.9244791666667  13.984375 10.9375  Z M 12.44140625 22.265625  C 12.05078125 22.9947916666667  11.7578125 23.53515625  11.5625 23.88671875  C 13.3203125 23.18359375  15.1692708333333 22.65625  17.109375 22.3046875  C 17.0833333333333 22.2916666666667  16.9986979166667 22.2298177083333  16.85546875 22.119140625  C 16.7122395833333 22.0084635416667  16.6080729166667 21.9205729166667  16.54296875 21.85546875  C 15.5533854166667 20.9830729166667  14.7265625 19.8372395833333  14.0625 18.41796875  C 13.7109375 19.5377604166667  13.1705729166667 20.8203125  12.44140625 22.265625  Z M 24.21875 23.6328125  C 24.21875 23.6197916666667  24.2057291666667 23.6002604166667  24.1796875 23.57421875  C 23.8671875 23.26171875  22.9557291666667 23.10546875  21.4453125 23.10546875  C 22.4348958333333 23.4700520833333  23.2421875 23.65234375  23.8671875 23.65234375  C 24.0494791666667 23.65234375  24.1666666666667 23.6458333333333  24.21875 23.6328125  Z " fill-rule="nonzero" fill="#666666" stroke="none" transform="matrix(1 0 0 1 41 451 )" />
  </g>
</svg>