<?xml version="1.0" encoding="utf-8"?>
<svg version="1.1" width="17px" height="14px" xmlns:xlink="http://www.w3.org/1999/xlink" xmlns="http://www.w3.org/2000/svg">
  <g transform="translate(-225 -560 )">
    <path d="M 5.71568080357143 6.7953488372093  C 5.95284598214286 6.56279069767442  6.07142857142857 6.28217054263566  6.07142857142857 5.95348837209302  C 6.07142857142857 5.62480620155039  5.95284598214286 5.34418604651163  5.71568080357143 5.11162790697674  C 5.478515625 4.87906976744186  5.19233630952381 4.76279069767442  4.85714285714286 4.76279069767442  C 4.52194940476191 4.76279069767442  4.23577008928571 4.87906976744186  3.99860491071429 5.11162790697674  C 3.76143973214286 5.34418604651163  3.64285714285714 5.62480620155039  3.64285714285714 5.95348837209302  C 3.64285714285714 6.28217054263566  3.76143973214286 6.56279069767442  3.99860491071429 6.7953488372093  C 4.23577008928571 7.02790697674419  4.52194940476191 7.14418604651163  4.85714285714286 7.14418604651163  C 5.19233630952381 7.14418604651163  5.478515625 7.02790697674419  5.71568080357143 6.7953488372093  Z M 9.35853794642857 6.7953488372093  C 9.595703125 6.56279069767442  9.71428571428571 6.28217054263566  9.71428571428571 5.95348837209302  C 9.71428571428571 5.62480620155039  9.595703125 5.34418604651163  9.35853794642857 5.11162790697674  C 9.12137276785714 4.87906976744186  8.83519345238095 4.76279069767442  8.5 4.76279069767442  C 8.16480654761905 4.76279069767442  7.87862723214286 4.87906976744186  7.64146205357143 5.11162790697674  C 7.404296875 5.34418604651163  7.28571428571429 5.62480620155039  7.28571428571429 5.95348837209302  C 7.28571428571429 6.28217054263566  7.404296875 6.56279069767442  7.64146205357143 6.7953488372093  C 7.87862723214286 7.02790697674419  8.16480654761905 7.14418604651163  8.5 7.14418604651163  C 8.83519345238095 7.14418604651163  9.12137276785714 7.02790697674419  9.35853794642857 6.7953488372093  Z M 13.0013950892857 6.7953488372093  C 13.2385602678571 6.56279069767442  13.3571428571429 6.28217054263566  13.3571428571429 5.95348837209302  C 13.3571428571429 5.62480620155039  13.2385602678571 5.34418604651163  13.0013950892857 5.11162790697674  C 12.7642299107143 4.87906976744186  12.4780505952381 4.76279069767442  12.1428571428571 4.76279069767442  C 11.8076636904762 4.76279069767442  11.521484375 4.87906976744186  11.2843191964286 5.11162790697674  C 11.0471540178571 5.34418604651163  10.9285714285714 5.62480620155039  10.9285714285714 5.95348837209302  C 10.9285714285714 6.28217054263566  11.0471540178571 6.56279069767442  11.2843191964286 6.7953488372093  C 11.521484375 7.02790697674419  11.8076636904762 7.14418604651163  12.1428571428571 7.14418604651163  C 12.4780505952381 7.14418604651163  12.7642299107143 7.02790697674419  13.0013950892857 6.7953488372093  Z M 15.8616071428571 2.96279069767442  C 16.6205357142857 3.87751937984496  17 4.87441860465116  17 5.95348837209302  C 17 7.03255813953488  16.6205357142857 8.02945736434108  15.8616071428571 8.94418604651163  C 15.1026785714286 9.85891472868217  14.0718005952381 10.5813953488372  12.7689732142857 11.1116279069767  C 11.4661458333333 11.6418604651163  10.0431547619048 11.906976744186  8.5 11.906976744186  C 7.80431547619048 11.906976744186  7.13709077380953 11.8511627906977  6.49832589285714 11.7395348837209  C 5.40420386904762 12.8124031007752  4.02864583333333 13.522480620155  2.37165178571429 13.8697674418605  C 2.04278273809524 13.9317829457364  1.77083333333333 13.9720930232558  1.55580357142857 13.9906976744186  C 1.47991071428571 13.9968992248062  1.41034226190476 13.9782945736434  1.34709821428571 13.9348837209302  C 1.28385416666667 13.8914728682171  1.24274553571429 13.8356589147287  1.22377232142857 13.7674418604651  C 1.19847470238095 13.6744186046512  1.26171875 13.5596899224806  1.41350446428571 13.4232558139535  C 1.44512648809524 13.3922480620155  1.51943824404762 13.3255813953488  1.63643973214286 13.2232558139535  C 1.7534412202381 13.1209302325581  1.83407738095238 13.0480620155039  1.87834821428571 13.0046511627907  C 1.92261904761905 12.9612403100775  1.99693080357143 12.8821705426357  2.10128348214286 12.7674418604651  C 2.20563616071429 12.6527131782946  2.28152901785714 12.5550387596899  2.32896205357143 12.4744186046512  C 2.37639508928571 12.3937984496124  2.44122023809524 12.2790697674419  2.5234375 12.1302325581395  C 2.60565476190476 11.9813953488372  2.66889880952381 11.8325581395349  2.71316964285714 11.6837209302326  C 2.75744047619048 11.5348837209302  2.80329241071429 11.3565891472868  2.85072544642857 11.1488372093023  C 2.89815848214286 10.9410852713178  2.93768601190476 10.7162790697674  2.96930803571429 10.4744186046512  C 2.04594494047619 9.91627906976744  1.32021949404762 9.24496124031008  0.792131696428571 8.46046511627907  C 0.264043898809524 7.67596899224806  0 6.84031007751938  0 5.95348837209302  C 0 4.87441860465116  0.379464285714286 3.87751937984496  1.13839285714286 2.96279069767442  C 1.89732142857143 2.04806201550387  2.9281994047619 1.32558139534884  4.23102678571429 0.795348837209303  C 5.53385416666667 0.265116279069768  6.95684523809524 0  8.5 0  C 10.0431547619048 0  11.4661458333333 0.265116279069768  12.7689732142857 0.795348837209303  C 14.0718005952381 1.32558139534884  15.1026785714286 2.04806201550387  15.8616071428571 2.96279069767442  Z " fill-rule="nonzero" fill="#7f7f7f" stroke="none" transform="matrix(1 0 0 1 225 560 )" />
  </g>
</svg>