<?xml version="1.0" encoding="utf-8"?>
<svg version="1.1" width="12px" height="14px" xmlns:xlink="http://www.w3.org/1999/xlink" xmlns="http://www.w3.org/2000/svg">
  <g transform="translate(-312 -560 )">
    <path d="M 1.8515625 11.6862980769231  C 1.95052083333333 11.5797275641026  2 11.4535256410256  2 11.3076923076923  C 2 11.161858974359  1.95052083333333 11.0356570512821  1.8515625 10.9290865384615  C 1.75260416666667 10.822516025641  1.63541666666667 10.7692307692308  1.5 10.7692307692308  C 1.36458333333333 10.7692307692308  1.24739583333333 10.822516025641  1.1484375 10.9290865384615  C 1.04947916666667 11.0356570512821  1 11.161858974359  1 11.3076923076923  C 1 11.4535256410256  1.04947916666667 11.5797275641026  1.1484375 11.6862980769231  C 1.24739583333333 11.7928685897436  1.36458333333333 11.8461538461538  1.5 11.8461538461538  C 1.63541666666667 11.8461538461538  1.75260416666667 11.7928685897436  1.8515625 11.6862980769231  Z M 10.83203125 7.14302884615385  C 10.9440104166667 6.88501602564102  11 6.65785256410256  11 6.46153846153846  C 11 6.17548076923077  10.8984375 5.92447916666667  10.6953125 5.70853365384615  C 10.4921875 5.49258814102564  10.2604166666667 5.38461538461538  10 5.38461538461538  L 7.25 5.38461538461538  C 7.25 5.05929487179487  7.375 4.61197916666667  7.625 4.04266826923077  C 7.875 3.47335737179487  8 3.02323717948718  8 2.69230769230769  C 8 2.1426282051282  7.91666666666667 1.73597756410256  7.75 1.47235576923077  C 7.58333333333333 1.20873397435897  7.25 1.07692307692308  6.75 1.07692307692308  C 6.61458333333333 1.22275641025641  6.515625 1.46113782051282  6.453125 1.79206730769231  C 6.390625 2.12299679487179  6.31119791666667 2.47495993589743  6.21484375 2.84795673076923  C 6.11848958333333 3.22095352564102  5.96354166666667 3.52804487179487  5.75 3.76923076923077  C 5.63541666666667 3.89823717948718  5.43489583333333 4.15344551282051  5.1484375 4.53485576923077  C 5.12760416666667 4.56290064102564  5.06770833333333 4.64703525641026  4.96875 4.78725961538462  C 4.86979166666667 4.92748397435897  4.78776041666667 5.04246794871795  4.72265625 5.13221153846154  C 4.65755208333333 5.22195512820513  4.56770833333333 5.34114583333333  4.453125 5.48978365384615  C 4.33854166666667 5.63842147435897  4.234375 5.76181891025641  4.140625 5.85997596153846  C 4.046875 5.95813301282051  3.94661458333333 6.05769230769231  3.83984375 6.15865384615385  C 3.73307291666667 6.25961538461538  3.62890625 6.33533653846154  3.52734375 6.38581730769231  C 3.42578125 6.43629807692308  3.33333333333333 6.46153846153846  3.25 6.46153846153846  L 3 6.46153846153846  L 3 11.8461538461538  L 3.25 11.8461538461538  C 3.31770833333333 11.8461538461538  3.39973958333333 11.8545673076923  3.49609375 11.8713942307692  C 3.59244791666667 11.8882211538462  3.67838541666667 11.9064503205128  3.75390625 11.9260817307692  C 3.82942708333333 11.9457131410256  3.92838541666667 11.9765625  4.05078125 12.0186298076923  C 4.17317708333333 12.0606971153846  4.26432291666667 12.0929487179487  4.32421875 12.1153846153846  C 4.38411458333333 12.1378205128205  4.4765625 12.1728766025641  4.6015625 12.2205528846154  C 4.7265625 12.2682291666667  4.80208333333333 12.2976762820513  4.828125 12.3088942307692  C 5.92708333333333 12.7183493589744  6.81770833333333 12.9230769230769  7.5 12.9230769230769  L 8.4453125 12.9230769230769  C 9.4453125 12.9230769230769  9.9453125 12.4547275641026  9.9453125 11.5180288461538  C 9.9453125 11.3721955128205  9.93229166666667 11.2151442307692  9.90625 11.046875  C 10.0625 10.9571314102564  10.1861979166667 10.8098958333333  10.27734375 10.6051682692308  C 10.3684895833333 10.4004407051282  10.4140625 10.1943108974359  10.4140625 9.98677884615385  C 10.4140625 9.7792467948718  10.3671875 9.58573717948718  10.2734375 9.40625  C 10.5494791666667 9.12580128205128  10.6875 8.79206730769231  10.6875 8.40504807692308  C 10.6875 8.26482371794872  10.6614583333333 8.10917467948718  10.609375 7.93810096153846  C 10.5572916666667 7.76702724358974  10.4921875 7.6338141025641  10.4140625 7.53846153846154  C 10.5807291666667 7.53285256410256  10.7200520833333 7.40104166666667  10.83203125 7.14302884615385  Z M 11.40625 4.94711538461538  C 11.8020833333333 5.37339743589743  12 5.87540064102564  12 6.453125  C 12 6.95232371794872  11.8723958333333 7.40945512820513  11.6171875 7.82451923076923  C 11.6640625 8.00961538461538  11.6875 8.203125  11.6875 8.40504807692308  C 11.6875 8.8369391025641  11.5885416666667 9.24078525641026  11.390625 9.61658653846154  C 11.40625 9.734375  11.4140625 9.85496794871795  11.4140625 9.97836538461538  C 11.4140625 10.5448717948718  11.2578125 11.0440705128205  10.9453125 11.4759615384615  C 10.9505208333333 12.255608974359  10.7291666666667 12.8711939102564  10.28125 13.3227163461538  C 9.83333333333333 13.7742387820513  9.2421875 14  8.5078125 14  L 8.2265625 14  L 7.5 14  C 7 14  6.50651041666667 13.9368990384615  6.01953125 13.8106971153846  C 5.53255208333333 13.6844951923077  4.96875 13.5008012820513  4.328125 13.2596153846154  C 3.72395833333333 13.0352564102564  3.36458333333333 12.9230769230769  3.25 12.9230769230769  L 1 12.9230769230769  C 0.723958333333333 12.9230769230769  0.48828125 12.8179086538462  0.29296875 12.6075721153846  C 0.09765625 12.3972355769231  0 12.1434294871795  0 11.8461538461538  L 0 6.46153846153846  C 0 6.16426282051282  0.09765625 5.91045673076923  0.29296875 5.70012019230769  C 0.48828125 5.48978365384615  0.723958333333333 5.38461538461538  1 5.38461538461538  L 3.140625 5.38461538461538  C 3.328125 5.25  3.68489583333333 4.81530448717949  4.2109375 4.08052884615385  C 4.51302083333333 3.65985576923077  4.79166666666667 3.30088141025641  5.046875 3.00360576923077  C 5.171875 2.86338141025641  5.26432291666667 2.62359775641026  5.32421875 2.28425480769231  C 5.38411458333333 1.94491185897436  5.46354166666667 1.59014423076923  5.5625 1.21995192307692  C 5.66145833333333 0.849759615384616  5.82291666666667 0.546875  6.046875 0.311298076923076  C 6.25 0.103766025641026  6.484375 0  6.75 0  C 7.1875 0  7.58072916666667 0.0911458333333344  7.9296875 0.2734375  C 8.27864583333333 0.455729166666666  8.54427083333333 0.740384615384616  8.7265625 1.12740384615385  C 8.90885416666667 1.51442307692308  9 2.03605769230769  9 2.69230769230769  C 9 3.21394230769231  8.875 3.75240384615385  8.625 4.30769230769231  L 10 4.30769230769231  C 10.5416666666667 4.30769230769231  11.0104166666667 4.52083333333333  11.40625 4.94711538461538  Z " fill-rule="nonzero" fill="#7f7f7f" stroke="none" transform="matrix(1 0 0 1 312 560 )" />
  </g>
</svg>