<?xml version="1.0" encoding="utf-8"?>
<svg version="1.1" width="9px" height="13px" xmlns:xlink="http://www.w3.org/1999/xlink" xmlns="http://www.w3.org/2000/svg">
  <g transform="translate(-270 -278 )">
    <path d="M 8.03865336658354 3.10546875  C 8.19077306733167 3.35807291666667  8.28179551122195 3.65625  8.31172069825436 4  C 8.40149625935162 4.94791666666667  8.07481296758105 5.61979166666667  7.33167082294264 6.015625  C 7.91521197007481 6.16145833333333  8.35162094763092 6.4296875  8.64089775561097 6.8203125  C 8.93017456359102 7.2109375  9.04239401496259 7.76822916666667  8.97755610972569 8.4921875  C 8.9426433915212 8.86197916666667  8.86159600997506 9.1875  8.73441396508728 9.46875  C 8.6072319201995 9.75  8.44638403990025 9.98177083333333  8.25187032418953 10.1640625  C 8.0573566084788 10.3463541666667  7.81546134663342 10.4986979166667  7.52618453865337 10.62109375  C 7.23690773067332 10.7434895833333  6.93391521197008 10.8333333333333  6.61720698254364 10.890625  C 6.30049875311721 10.9479166666667  5.93765586034913 10.9869791666667  5.5286783042394 11.0078125  L 5.5286783042394 13  L 4.37655860349127 13  L 4.37655860349127 11.0390625  C 3.97755610972569 11.0390625  3.67331670822943 11.0364583333333  3.46384039900249 11.03125  L 3.46384039900249 13  L 2.31172069825436 13  L 2.31172069825436 11.0078125  C 2.22194513715711 11.0078125  2.08728179551122 11.0065104166667  1.90773067331671 11.00390625  C 1.72817955112219 11.0013020833333  1.59102244389027 11  1.49625935162095 11  L 0 11  L 0.231920199501247 9.5703125  L 1.06234413965087 9.5703125  C 1.31172069825436 9.5703125  1.45635910224439 9.4375  1.49625935162095 9.171875  L 1.49625935162095 6.03125  L 1.61596009975062 6.03125  C 1.5860349127182 6.02604166666667  1.54613466334165 6.0234375  1.49625935162095 6.0234375  L 1.49625935162095 3.78125  C 1.43142144638404 3.42708333333333  1.20947630922693 3.25  0.830423940149626 3.25  L 0 3.25  L 0 1.96875  L 1.5860349127182 1.9765625  C 1.90523690773067 1.9765625  2.14713216957606 1.97395833333333  2.31172069825436 1.96875  L 2.31172069825436 0  L 3.46384039900249 0  L 3.46384039900249 1.9296875  C 3.87281795511222 1.91927083333333  4.17705735660848 1.9140625  4.37655860349127 1.9140625  L 4.37655860349127 0  L 5.5286783042394 0  L 5.5286783042394 1.96875  C 5.92269326683292 2.00520833333333  6.27182044887781 2.06380208333333  6.57605985037407 2.14453125  C 6.88029925187033 2.22526041666667  7.16209476309227 2.34244791666667  7.4214463840399 2.49609375  C 7.68079800498753 2.64973958333333  7.88653366583541 2.85286458333333  8.03865336658354 3.10546875  Z M 6.63216957605985 8.65625  C 6.67955112219451 8.53645833333333  6.70324189526185 8.40364583333333  6.70324189526185 8.2578125  C 6.70324189526185 8.0703125  6.66583541147132 7.90364583333333  6.59102244389027 7.7578125  C 6.51620947630923 7.61197916666667  6.42394014962594 7.4921875  6.3142144638404 7.3984375  C 6.20448877805486 7.3046875  6.06109725685786 7.22526041666667  5.88403990024938 7.16015625  C 5.7069825436409 7.09505208333333  5.54364089775561 7.046875  5.39401496259352 7.015625  C 5.24438902743142 6.984375  5.05985037406484 6.9609375  4.84039900249376 6.9453125  C 4.62094763092269 6.9296875  4.44887780548629 6.921875  4.32418952618454 6.921875  C 4.19950124688279 6.921875  4.03865336658354 6.92447916666667  3.84164588528678 6.9296875  C 3.64463840399003 6.93489583333333  3.52618453865337 6.9375  3.48628428927681 6.9375  L 3.48628428927681 9.578125  C 3.52618453865337 9.578125  3.61845386533666 9.57942708333333  3.76309226932668 9.58203125  C 3.90773067331671 9.58463541666667  4.02743142144638 9.5859375  4.12219451371571 9.5859375  C 4.21695760598504 9.5859375  4.34912718204489 9.58203125  4.51870324189526 9.57421875  C 4.68827930174564 9.56640625  4.83416458852868 9.55598958333333  4.95635910224439 9.54296875  C 5.0785536159601 9.52994791666667  5.22069825436409 9.5078125  5.38279301745636 9.4765625  C 5.54488778054863 9.4453125  5.68329177057357 9.40885416666667  5.79800498753117 9.3671875  C 5.91271820448878 9.32552083333333  6.03117206982544 9.27083333333333  6.15336658354115 9.203125  C 6.27556109725686 9.13541666666667  6.37406483790524 9.05729166666667  6.44887780548628 8.96875  C 6.52369077306733 8.88020833333333  6.58478802992519 8.77604166666667  6.63216957605985 8.65625  Z M 6.10473815461347 4.9375  C 6.14962593516209 4.81770833333333  6.17206982543641 4.68489583333333  6.17206982543641 4.5390625  C 6.17206982543641 4.3671875  6.14089775561097 4.21484375  6.0785536159601 4.08203125  C 6.01620947630923 3.94921875  5.94014962593516 3.83984375  5.85037406483791 3.75390625  C 5.76059850374065 3.66796875  5.64089775561097 3.59505208333333  5.49127182044888 3.53515625  C 5.34164588528678 3.47526041666667  5.20448877805486 3.43229166666667  5.07980049875312 3.40625  C 4.95511221945137 3.38020833333333  4.80174563591022 3.359375  4.61970074812968 3.34375  C 4.43765586034913 3.328125  4.2930174563591 3.32161458333333  4.1857855361596 3.32421875  C 4.0785536159601 3.32682291666667  3.94389027431422 3.32942708333333  3.78179551122195 3.33203125  C 3.61970074812968 3.33463541666667  3.5211970074813 3.3359375  3.48628428927681 3.3359375  L 3.48628428927681 5.734375  C 3.51122194513716 5.734375  3.59725685785536 5.73567708333333  3.74438902743142 5.73828125  C 3.89152119700748 5.74088541666667  4.00748129675811 5.74088541666667  4.09226932668329 5.73828125  C 4.17705735660848 5.73567708333333  4.30174563591022 5.73046875  4.46633416458853 5.72265625  C 4.63092269326683 5.71484375  4.76807980049875 5.70052083333333  4.87780548628429 5.6796875  C 4.98753117206983 5.65885416666667  5.11596009975062 5.63020833333333  5.26309226932668 5.59375  C 5.41022443890274 5.55729166666667  5.53117206982544 5.50911458333333  5.62593516209476 5.44921875  C 5.72069825436409 5.38932291666667  5.81296758104738 5.31901041666667  5.90274314214464 5.23828125  C 5.9925187032419 5.15755208333333  6.05985037406484 5.05729166666667  6.10473815461347 4.9375  Z " fill-rule="nonzero" fill="#b9b9b9" stroke="none" transform="matrix(1 0 0 1 270 278 )" />
  </g>
</svg>