<?xml version="1.0" encoding="utf-8"?>
<svg version="1.1" width="26px" height="26px" xmlns:xlink="http://www.w3.org/1999/xlink" xmlns="http://www.w3.org/2000/svg">
  <g transform="translate(-166 -297 )">
    <path d="M 11.7643229166667 18.2643229166667  C 11.8658854166667 18.1627604166667  11.9166666666667 18.0329861111111  11.9166666666667 17.875  L 11.9166666666667 8.125  C 11.9166666666667 7.96701388888889  11.8658854166667 7.83723958333333  11.7643229166667 7.73567708333333  C 11.6627604166667 7.63411458333333  11.5329861111111 7.58333333333333  11.375 7.58333333333333  L 7.04166666666667 7.58333333333333  C 6.88368055555556 7.58333333333333  6.75390625 7.63411458333333  6.65234375 7.73567708333333  C 6.55078125 7.83723958333333  6.5 7.96701388888889  6.5 8.125  L 6.5 17.875  C 6.5 18.0329861111111  6.55078125 18.1627604166667  6.65234375 18.2643229166667  C 6.75390625 18.3658854166667  6.88368055555556 18.4166666666667  7.04166666666667 18.4166666666667  L 11.375 18.4166666666667  C 11.5329861111111 18.4166666666667  11.6627604166667 18.3658854166667  11.7643229166667 18.2643229166667  Z M 19.34765625 18.2643229166667  C 19.44921875 18.1627604166667  19.5 18.0329861111111  19.5 17.875  L 19.5 8.125  C 19.5 7.96701388888889  19.44921875 7.83723958333333  19.34765625 7.73567708333333  C 19.24609375 7.63411458333333  19.1163194444444 7.58333333333333  18.9583333333333 7.58333333333333  L 14.625 7.58333333333333  C 14.4670138888889 7.58333333333333  14.3372395833333 7.63411458333333  14.2356770833333 7.73567708333333  C 14.1341145833333 7.83723958333333  14.0833333333333 7.96701388888889  14.0833333333333 8.125  L 14.0833333333333 17.875  C 14.0833333333333 18.0329861111111  14.1341145833333 18.1627604166667  14.2356770833333 18.2643229166667  C 14.3372395833333 18.3658854166667  14.4670138888889 18.4166666666667  14.625 18.4166666666667  L 18.9583333333333 18.4166666666667  C 19.1163194444444 18.4166666666667  19.24609375 18.3658854166667  19.34765625 18.2643229166667  Z M 24.2565104166667 6.474609375  C 25.4188368055556 8.46636284722222  26 10.6414930555556  26 13  C 26 15.3585069444444  25.4188368055556 17.5336371527778  24.2565104166667 19.525390625  C 23.0941840277778 21.5171440972222  21.5171440972222 23.0941840277778  19.525390625 24.2565104166667  C 17.5336371527778 25.4188368055556  15.3585069444444 26  13 26  C 10.6414930555556 26  8.46636284722222 25.4188368055556  6.474609375 24.2565104166667  C 4.48285590277778 23.0941840277778  2.90581597222222 21.5171440972222  1.74348958333333 19.525390625  C 0.581163194444444 17.5336371527778  0 15.3585069444444  0 13  C 0 10.6414930555556  0.581163194444444 8.46636284722222  1.74348958333333 6.474609375  C 2.90581597222222 4.48285590277778  4.48285590277778 2.90581597222222  6.474609375 1.74348958333333  C 8.46636284722222 0.581163194444442  10.6414930555556 0  13 0  C 15.3585069444444 0  17.5336371527778 0.581163194444442  19.525390625 1.74348958333333  C 21.5171440972222 2.90581597222222  23.0941840277778 4.48285590277778  24.2565104166667 6.474609375  Z " fill-rule="nonzero" fill="#1b82d2" stroke="none" transform="matrix(1 0 0 1 166 297 )" />
  </g>
</svg>