<?xml version="1.0" encoding="utf-8"?>
<svg version="1.1" width="8px" height="7px" xmlns:xlink="http://www.w3.org/1999/xlink" xmlns="http://www.w3.org/2000/svg">
  <g transform="translate(-70 -405 )">
    <path d="M 7.8515625 0.230902777777778  C 7.95052083333333 0.384837962962962  8 0.567129629629628  8 0.777777777777778  C 8 0.988425925925925  7.95052083333333 1.17071759259259  7.8515625 1.32465277777778  L 4.3515625 6.76909722222222  C 4.25260416666667 6.92303240740741  4.13541666666667 7  4 7  C 3.86458333333333 7  3.74739583333333 6.92303240740741  3.6484375 6.76909722222222  L 0.1484375 1.32465277777778  C 0.0494791666666667 1.17071759259259  0 0.988425925925925  0 0.777777777777778  C 0 0.567129629629628  0.0494791666666667 0.384837962962962  0.1484375 0.230902777777778  C 0.247395833333333 0.0769675925925917  0.364583333333333 0  0.5 0  L 7.5 0  C 7.63541666666667 0  7.75260416666667 0.0769675925925917  7.8515625 0.230902777777778  Z " fill-rule="nonzero" fill="#1890ff" stroke="none" transform="matrix(1 0 0 1 70 405 )" />
  </g>
</svg>