<?xml version="1.0" encoding="utf-8"?>
<svg version="1.1" width="12px" height="18px" xmlns:xlink="http://www.w3.org/1999/xlink" xmlns="http://www.w3.org/2000/svg">
  <g transform="translate(-88 -407 )">
    <path d="M 1.99431818181818 11.7530230596176  C 1.75568181818182 11.9533886389201  1.5 12.0535714285714  1.22727272727274 12.0535714285714  C 0.931818181818187 12.0535714285714  0.676136363636363 11.9533886389201  0.460227272727263 11.7530230596176  C 0.244318181818181 11.552657480315  0.136363636363632 11.3127460629921  0.136363636363632 11.033288807649  C 0.136363636363632 10.7538315523059  0.244318181818181 10.5139201349831  0.460227272727263 10.3135545556805  C 0.880681818181819 9.92336895388075  1.09090909090909 9.44881889763779  1.09090909090909 8.88990438695162  C 1.09090909090909 8.34153543307086  0.880681818181819 7.8617125984252  0.460227272727263 7.45043588301462  C 0.244318181818181 7.25007030371205  0.136363636363632 7.01279527559056  0.136363636363632 6.73861079865017  C 0.136363636363632 6.46442632170979  0.244318181818181 6.22715129358829  0.460227272727263 6.02678571428572  C 0.676136363636363 5.82642013498311  0.931818181818187 5.72623734533184  1.22727272727274 5.72623734533184  C 1.52272727272727 5.72623734533184  1.77840909090909 5.82642013498311  1.99431818181818 6.02678571428572  C 2.84659090909091 6.81770247469065  3.27272727272726 7.77207536557929  3.27272727272726 8.88990438695162  C 3.27272727272726 10.007733408324  2.84659090909091 10.9621062992126  1.99431818181818 11.7530230596176  Z M 5.07954545454546 14.6161417322835  C 4.875 14.816507311586  4.61931818181818 14.9166901012373  4.3125 14.9166901012373  C 4.00568181818182 14.9166901012373  3.75 14.816507311586  3.54545454545454 14.6161417322835  C 3.32954545454546 14.4157761529809  3.22159090909091 14.1785011248594  3.22159090909091 13.904316647919  C 3.22159090909091 13.6301321709786  3.32954545454546 13.3928571428571  3.54545454545454 13.1924915635546  C 4.81818181818182 11.990298087739  5.45454545454546 10.5561023622047  5.45454545454546 8.88990438695162  C 5.45454545454546 7.22370641169853  4.81818181818182 5.78951068616422  3.54545454545454 4.58731721034872  C 3.32954545454546 4.38695163104611  3.22159090909091 4.14967660292465  3.22159090909091 3.87549212598427  C 3.22159090909091 3.60130764904385  3.32954545454546 3.36403262092239  3.54545454545454 3.16366704161978  C 3.76136363636364 2.96330146231721  4.01704545454545 2.86311867266591  4.3125 2.86311867266591  C 4.60795454545455 2.86311867266591  4.86363636363636 2.96330146231721  5.07954545454546 3.16366704161978  C 6.78409090909091 4.7455005624297  7.63636363636363 6.65424634420696  7.63636363636363 8.88990438695162  C 7.63636363636363 11.1255624296963  6.78409090909091 13.0343082114736  5.07954545454546 14.6161417322835  Z M 8.16477272727274 17.4792604049494  C 7.96022727272726 17.679625984252  7.70454545454546 17.7798087739032  7.39772727272726 17.7798087739032  C 7.09090909090909 17.7798087739032  6.83522727272726 17.679625984252  6.63068181818182 17.4792604049494  C 6.41477272727273 17.2788948256468  6.30681818181818 17.0416197975253  6.30681818181818 16.7674353205849  C 6.30681818181818 16.4932508436445  6.41477272727273 16.2559758155231  6.63068181818182 16.0556102362205  C 7.65340909090909 15.0959645669291  8.44034090909091 13.9992266591676  8.99147727272726 12.7653965129359  C 9.54261363636364 11.5315663667042  9.81818181818182 10.2397356580428  9.81818181818182 8.88990438695162  C 9.81818181818182 7.54007311586053  9.54261363636364 6.24824240719909  8.99147727272726 5.01441226096739  C 8.44034090909091 3.78058211473566  7.65340909090909 2.68384420697413  6.63068181818182 1.72419853768278  C 6.41477272727273 1.52383295838021  6.30681818181818 1.28655793025871  6.30681818181818 1.01237345331833  C 6.30681818181818 0.738188976377945  6.41477272727273 0.500913948256482  6.63068181818182 0.300548368953876  C 6.84659090909091 0.100182789651303  7.10227272727273 0  7.39772727272726 0  C 7.69318181818181 0  7.94886363636364 0.100182789651303  8.16477272727274 0.300548368953876  C 9.4034090909091 1.4500140607424  10.3522727272727 2.76293588301463  11.0113636363636 4.23931383577052  C 11.6704545454545 5.71569178852645  12 7.26588863892015  12 8.88990438695162  C 12 10.5139201349831  11.6704545454545 12.0641169853768  11.0113636363636 13.5404949381327  C 10.3522727272727 15.0168728908886  9.4034090909091 16.3297947131609  8.16477272727274 17.4792604049494  Z " fill-rule="nonzero" fill="#f4f4f4" stroke="none" transform="matrix(1 0 0 1 88 407 )" />
  </g>
</svg>