<?xml version="1.0" encoding="utf-8"?>
<svg version="1.1" width="25px" height="36px" xmlns:xlink="http://www.w3.org/1999/xlink" xmlns="http://www.w3.org/2000/svg">
  <g transform="translate(-200 -657 )">
    <path d="M 24.5876736111111 14.2572115384615  C 24.8625578703704 14.53125  25 14.8557692307692  25 15.2307692307692  L 25 18  C 25 21.1875  23.9330150462963 23.9603365384615  21.7990451388889 26.3185096153846  C 19.6650752314815 28.6766826923077  17.0283564814815 30.0288461538462  13.8888888888889 30.375  L 13.8888888888889 33.2307692307692  L 19.4444444444444 33.2307692307692  C 19.8206018518519 33.2307692307692  20.1461226851852 33.3677884615385  20.4210069444444 33.6418269230769  C 20.6958912037037 33.9158653846154  20.8333333333333 34.2403846153846  20.8333333333333 34.6153846153846  C 20.8333333333333 34.9903846153846  20.6958912037037 35.3149038461538  20.4210069444444 35.5889423076923  C 20.1461226851852 35.8629807692308  19.8206018518519 36  19.4444444444444 36  L 5.55555555555556 36  C 5.17939814814815 36  4.85387731481482 35.8629807692308  4.57899305555556 35.5889423076923  C 4.3041087962963 35.3149038461538  4.16666666666667 34.9903846153846  4.16666666666667 34.6153846153846  C 4.16666666666667 34.2403846153846  4.3041087962963 33.9158653846154  4.57899305555556 33.6418269230769  C 4.85387731481482 33.3677884615385  5.17939814814815 33.2307692307692  5.55555555555556 33.2307692307692  L 11.1111111111111 33.2307692307692  L 11.1111111111111 30.375  C 7.97164351851852 30.0288461538462  5.33492476851852 28.6766826923077  3.20095486111111 26.3185096153846  C 1.0669849537037 23.9603365384615  0 21.1875  0 18  L 0 15.2307692307692  C 0 14.8557692307692  0.13744212962963 14.53125  0.412326388888889 14.2572115384615  C 0.687210648148148 13.9831730769231  1.01273148148148 13.8461538461538  1.38888888888889 13.8461538461538  C 1.7650462962963 13.8461538461538  2.09056712962963 13.9831730769231  2.36545138888889 14.2572115384615  C 2.64033564814815 14.53125  2.77777777777778 14.8557692307692  2.77777777777778 15.2307692307692  L 2.77777777777778 18  C 2.77777777777778 20.6682692307692  3.72902199074074 22.9507211538462  5.63151041666667 24.8473557692308  C 7.53399884259259 26.7439903846154  9.82349537037037 27.6923076923077  12.5 27.6923076923077  C 15.1765046296296 27.6923076923077  17.4660011574074 26.7439903846154  19.3684895833333 24.8473557692308  C 21.2709780092593 22.9507211538462  22.2222222222222 20.6682692307692  22.2222222222222 18  L 22.2222222222222 15.2307692307692  C 22.2222222222222 14.8557692307692  22.3596643518519 14.53125  22.6345486111111 14.2572115384615  C 22.9094328703704 13.9831730769231  23.2349537037037 13.8461538461538  23.6111111111111 13.8461538461538  C 23.9872685185185 13.8461538461538  24.3127893518519 13.9831730769231  24.5876736111111 14.2572115384615  Z M 17.4045138888889 2.03365384615384  C 18.7644675925926 3.38942307692307  19.4444444444444 5.01923076923077  19 6.92307692307692  L 19 18  C 19.4444444444444 19.9038461538462  18.7644675925926 21.5336538461538  17.4045138888889 22.8894230769231  C 16.0445601851852 24.2451923076923  14.4097222222222 24.9230769230769  12.5 24.9230769230769  C 10.5902777777778 24.9230769230769  8.95543981481482 24.2451923076923  7.59548611111111 22.8894230769231  C 6.23553240740741 21.5336538461538  5.55555555555556 19.9038461538462  6 18  L 6 6.92307692307692  C 5.55555555555556 5.01923076923077  6.23553240740741 3.38942307692307  7.59548611111111 2.03365384615384  C 8.95543981481482 0.677884615384619  10.5902777777778 0  12.5 0  C 14.4097222222222 0  16.0445601851852 0.677884615384619  17.4045138888889 2.03365384615384  Z " fill-rule="nonzero" fill="#ffffff" stroke="none" transform="matrix(1 0 0 1 200 657 )" />
  </g>
</svg>